<?xml version="1.0" encoding="utf-8"?>
<!-- Generator: Adobe Illustrator 23.1.1, SVG Export Plug-In . SVG Version: 6.00 Build 0)  -->
<svg version="1.1" id="_x3C_Layer_x3E_" xmlns="http://www.w3.org/2000/svg" xmlns:xlink="http://www.w3.org/1999/xlink" x="0px"
	 y="0px" viewBox="0 0 384.6 95.6" style="enable-background:new 0 0 384.6 95.6;" xml:space="preserve">
<style type="text/css">
	.st0{fill:#FFFFFF;}
</style>
<polygon points="343.8,94.9 361.7,71.3 379.6,47.8 361.7,24.4 343.8,1 190.8,1 37.8,1 19.9,24.4 2,47.8 19.9,71.3 37.8,94.9 
	190.8,94.9 "/>
<path class="st0" d="M129.3,30c0-3.6,0.6-9.1,3.8-10.4v-0.4h-18.9v0.4c3.2,1.3,3.8,6.8,3.8,10.4v34.9c0,3.6-0.6,9.1-3.8,10.4v0.4
	h18.9v-0.4c-3.2-1.3-3.8-6.8-3.8-10.4V30z"/>
<path class="st0" d="M63.8,19.2l15.1,37.4l15.3-37.4h15.2v0.4c-3.2,1.3-3.8,6.8-3.8,10.4v34.9c0,3.6,0.6,9.1,3.8,10.4v0.4H90.6v-0.4
	c3.2-1.3,3.8-6.8,3.8-10.4V29.3h-0.2L75.4,75.8h-2.1L54.7,29.3h-0.2v35.6c0,3.6,0.6,9.1,3.8,10.4v0.4H47.1v-0.4
	C50.4,74,51,68.5,51,64.9V30c0-3.6-0.6-9.1-3.8-10.4v-0.4L63.8,19.2z"/>
<path class="st0" d="M238.9,55.9h-0.2l-8.6-25.9c-1.2-3.6-2.5-9.1,0.2-10.4v-0.4l-19,0l0,0.4c2.7,1,4.8,4.6,6.2,7.9l-8.7,28.4h-0.2
	L200,30.1c-1.2-3.6-2.5-9.1,0.2-10.4v-0.4l-25.9,0v0.4c3.2,1.3,3.8,6.8,3.8,10.4v23.3l-25.9-34.1h-16v0.3c2.2,0.5,3.4,3.2,6.5,7.2
	v38.2c0,3.6-0.6,9.1-3.8,10.4v0.4H150v-0.4c-3.2-1.3-3.8-6.8-3.8-10.4V32.1l33.8,44.4h1.7l-0.1-25.8V30c0-2.6,0.1-8.7,2-8.7
	c2.4,0,3.8,6,4.7,8.8l15.9,46.8h1.5l13.5-44.2h0.2l14.8,44.2h1.6L250.1,30c1.1-3.6,3.4-9.1,6.8-10.4l0-0.4l-10.7,0v0.4
	c2.7,1.3,1.6,6.8,0.5,10.4L238.9,55.9h-0.1"/>
<path class="st0" d="M327.4,64.8l-13.1-22.6l8-12.5c2.3-3.6,6-9.1,10-10.4l0-0.4h-11.4l0,0.4c2.3,1.3-0.7,6.8-3,10.4l-5.6,8.8
	l-5.1-8.7c-2.1-3.6-4.7-9.1-2.3-10.4V19h-20.4v0.4c3.9,1.3,7.2,6.8,9.3,10.4l11.5,19.8l-9.7,15.2c-1.1,1.8-2.3,3.5-3.6,5.1
	c-0.9-1.6-1.6-3.3-2.2-5.1l-16-45.7h-8.9l-14.5,45.7c-1.1,3.6-3.5,9.1-7.1,10.4l0,0.4h11.1v-0.4c-2.8-1.3-1.7-6.8-0.5-10.4l2.5-8.2
	h18.4l2.8,8.1c1.3,3.6,2.6,9.1-0.2,10.4v0.4h19.8l0-0.4c-0.1,0-0.1-0.1-0.2-0.1c-2.2-1.3,0.7-6.8,3-10.4l7.4-11.6l6.8,11.6
	c2.1,3.6,4.7,9.1,2.3,10.4v0.4h20.4v-0.4C332.9,74,329.5,68.5,327.4,64.8z M257.6,52.6l7.3-23.4h0.2l8.1,23.4L257.6,52.6z"/>
<path class="st0" d="M332.7,62.6c0-3.1,2.4-5.6,5.5-5.6s5.6,2.4,5.6,5.5c0,3.1-2.4,5.6-5.5,5.6c0,0,0,0-0.1,0
	c-3,0.1-5.5-2.3-5.6-5.4C332.7,62.7,332.7,62.7,332.7,62.6z M338.3,67.2c2.5,0.1,4.6-1.9,4.7-4.5c0.1-2.5-1.9-4.6-4.5-4.7
	c-2.5-0.1-4.6,1.9-4.7,4.5c0,0,0,0.1,0,0.1c-0.1,2.4,1.8,4.5,4.3,4.6C338.2,67.2,338.3,67.2,338.3,67.2z M337.2,65.8h-1v-6.3h2.4
	c1.5,0,2.2,0.6,2.2,1.8c0.1,0.9-0.6,1.7-1.5,1.7c0,0-0.1,0-0.1,0l1.8,2.8h-1.1l-1.6-2.7h-1.1L337.2,65.8z M338.3,62.2
	c0.8,0,1.5-0.1,1.5-1c0-0.8-0.7-0.9-1.4-0.9h-1.3v2H338.3z"/>
<path class="st0" d="M156.7,90.1l0.6-0.8l0.6-0.8c0.4,0.3,0.7,0.5,1.2,0.7c0.4,0.2,0.8,0.3,1.3,0.3c0.2,0,0.5-0.1,0.7-0.2
	c0.2-0.1,0.2-0.3,0.2-0.5l0,0c0-0.2-0.1-0.4-0.3-0.5c-0.3-0.2-0.7-0.4-1.1-0.5c-0.7-0.2-1.5-0.6-2.1-1c-0.5-0.4-0.8-1.1-0.8-1.8
	v-0.1c0-0.8,0.3-1.5,0.9-2c0.7-0.5,1.5-0.8,2.3-0.8c0.6,0,1.2,0.1,1.7,0.3c0.5,0.2,1.1,0.5,1.5,0.8l-0.6,0.9l-0.6,0.9
	c-0.3-0.2-0.6-0.4-1-0.6c-0.3-0.2-0.7-0.2-1.1-0.2c-0.2,0-0.4,0-0.6,0.2c-0.1,0.1-0.2,0.3-0.2,0.4l0,0c0,0.2,0.1,0.4,0.3,0.5
	c0.4,0.2,0.7,0.4,1.1,0.5c0.7,0.2,1.4,0.5,2,1c0.5,0.4,0.8,1.1,0.7,1.8l0,0c0,0.8-0.3,1.5-0.9,2.1c-0.7,0.5-1.5,0.8-2.4,0.8
	c-0.7,0-1.3-0.1-2-0.3C157.8,90.8,157.2,90.5,156.7,90.1z"/>
<path class="st0" d="M164.9,82.3h2.3v9h-2.3L164.9,82.3L164.9,82.3z"/>
<path class="st0" d="M168.8,82.3h2.2l1.5,2.3l1.5,2.3v-4.5h2.3v9h-2.1l-1.6-2.4l-1.6-2.4v4.7h-2.3L168.8,82.3L168.8,82.3z"/>
<path class="st0" d="M177.5,86.9v-0.2c0-1.2,0.4-2.4,1.2-3.3c0.8-0.8,1.8-1.3,3-1.3c0.6,0,1.2,0.1,1.8,0.4c0.5,0.2,1,0.6,1.3,1
	l-0.7,0.8l-0.7,0.8c-0.2-0.2-0.4-0.4-0.7-0.6c-0.3-0.2-0.6-0.3-0.9-0.2c-0.5,0-1,0.2-1.3,0.7c-0.4,0.5-0.6,1.2-0.5,1.8v0
	c0,0.7,0.2,1.3,0.5,1.8c0.3,0.4,0.8,0.7,1.3,0.7c0.3,0,0.7-0.1,1-0.3c0.3-0.2,0.5-0.4,0.7-0.6l0.7,0.7l0.7,0.7
	c-0.4,0.5-0.8,0.8-1.3,1.1c-0.6,0.3-1.2,0.4-1.9,0.4c-1.1,0-2.2-0.4-2.9-1.2C177.9,89.3,177.5,88.1,177.5,86.9z"/>
<path class="st0" d="M185.8,82.3h6.2v2H188v1.5h3.5v1.9H188v1.5h3.9v2h-6.2L185.8,82.3L185.8,82.3z"/>
<path class="st0" d="M198.1,84.5l-0.7,0.2l-0.7,0.2l-0.2-1l-0.2-1l1.1-0.3l1.1-0.3h1.7v9h-2.3L198.1,84.5L198.1,84.5z"/>
<path class="st0" d="M206.1,87.6c-0.2,0.2-0.5,0.3-0.8,0.4c-0.3,0.1-0.6,0.2-0.9,0.2c-0.7,0-1.4-0.2-1.9-0.7
	c-0.5-0.6-0.8-1.3-0.8-2.1v-0.1c-0.1-1.7,1.2-3.2,2.9-3.3c0.1,0,0.2,0,0.3,0c0.5,0,0.9,0.1,1.4,0.2c0.4,0.1,0.7,0.4,1,0.7
	c0.4,0.4,0.6,0.8,0.8,1.3c0.2,0.7,0.3,1.4,0.3,2.2v0c0.1,1.3-0.3,2.6-1,3.6c-0.7,0.8-1.7,1.3-2.8,1.3c-0.5,0-1-0.1-1.4-0.2
	c-0.4-0.2-0.9-0.4-1.2-0.7l0.5-0.9l0.5-0.9c0.2,0.2,0.5,0.3,0.8,0.5c0.3,0.1,0.6,0.2,0.9,0.2c0.5,0,0.9-0.2,1.2-0.6
	C206,88.5,206.1,88.1,206.1,87.6z M206.1,85.3L206.1,85.3L206.1,85.3c0-0.3-0.1-0.7-0.3-0.9c-0.2-0.2-0.5-0.4-0.8-0.4
	c-0.3,0-0.6,0.1-0.8,0.4c-0.2,0.3-0.3,0.6-0.3,0.9l0,0c0,0.3,0.1,0.7,0.3,0.9c0.2,0.2,0.5,0.4,0.8,0.3c0.3,0,0.6-0.1,0.8-0.3
	C206,85.9,206.1,85.6,206.1,85.3L206.1,85.3z"/>
<path class="st0" d="M209.4,86.9v-0.2c0-1.2,0.3-2.3,1-3.3c0.6-0.8,1.6-1.3,2.7-1.3c1,0,2,0.4,2.7,1.3c0.7,1,1,2.1,1,3.3v0.2
	c0,1.2-0.3,2.3-1,3.3c-1.2,1.5-3.4,1.7-4.9,0.5c-0.2-0.2-0.4-0.3-0.5-0.5C209.7,89.2,209.4,88,209.4,86.9z M214.5,86.9v-0.2
	c0-0.6-0.1-1.3-0.4-1.9c-0.2-0.4-0.6-0.6-1-0.7c-0.4,0-0.8,0.3-1,0.7c-0.3,0.6-0.4,1.2-0.4,1.9v0.2c0,0.6,0.1,1.3,0.4,1.9
	c0.2,0.4,0.6,0.6,1,0.7c0.4,0,0.8-0.3,1-0.7C214.4,88.2,214.5,87.5,214.5,86.9z"/>
<path class="st0" d="M221.7,89.6h-3.8l-0.1-0.8l-0.1-0.8l2-2.9l2-2.9h2.3v5.6h1v1.8h-1v1.7h-2.2L221.7,89.6L221.7,89.6z M221.7,87.8
	v-2.7l-0.9,1.3l-0.9,1.3L221.7,87.8L221.7,87.8z"/>
<path class="st0" d="M373.8,47L342.7,5.2c-0.3-0.4-0.7-0.6-1.2-0.6H40c-0.5,0-0.9,0.2-1.2,0.6L7.8,47c-0.4,0.5-0.4,1.2,0,1.7
	l31.1,42c0.3,0.4,0.7,0.6,1.2,0.6h109.7c0.8,0,1.4-0.6,1.4-1.4c0-0.8-0.6-1.4-1.4-1.4c0,0,0,0,0,0h-109l-30-40.5l30-40.3h300.1
	l30,40.3l-30,40.5H232c-0.8,0-1.4,0.6-1.4,1.4c0,0.8,0.6,1.4,1.4,1.4c0,0,0,0,0,0h109.6c0.5,0,0.9-0.2,1.2-0.6l31.1-42
	C374.2,48.2,374.2,47.5,373.8,47z"/>
</svg>
