<svg id="Layer_1" data-name="Layer 1" xmlns="http://www.w3.org/2000/svg" viewBox="0 0 612 227.7"><defs><style>.cls-1{fill:#fff;}</style></defs><title>Artboard 1</title><path class="cls-1" d="M223.87,101.91a17.8,17.8,0,0,0-3.25-.89c-1.71-.39-3.46-.71-5.17-1.11-1.4-.28-3.93-.85-4.54-1.64a1.38,1.38,0,0,1-.29-.89c0-1.86,2.79-2,4-2,3.78,0,4.21,1.5,4.42,2.32l8.86-.49a7.51,7.51,0,0,0-5.57-6.4,27.65,27.65,0,0,0-7.68-1c-2.78,0-7.85.29-10.67,3.21a7.11,7.11,0,0,0-2,4.93c0,4.61,4,6,5,6.39a29.43,29.43,0,0,0,2.89.79c1.25.28,6.93,1.28,8,1.64a2.11,2.11,0,0,1,1.68,1.93,2.4,2.4,0,0,1-1.25,1.92,7,7,0,0,1-3.15.61c-3.57,0-5.24-1.25-5.57-2.89l-8.89.25a8.13,8.13,0,0,0,2.65,5.39c3,2.64,8,2.86,10.53,2.86,6.78,0,11-1.4,13.14-4.57A7.84,7.84,0,0,0,228.3,108,6.19,6.19,0,0,0,223.87,101.91Z"/><polygon class="cls-1" points="229.57 96.52 238.53 96.52 238.53 116.09 247.63 116.09 247.63 96.52 256.56 96.52 256.56 90.85 229.57 90.85 229.57 96.52"/><path class="cls-1" d="M279.82,105.06c0,1.21,0,3.49-1.57,4.92a6.21,6.21,0,0,1-4.32,1.39c-1.82,0-4.11-.53-5.25-2.5a7,7,0,0,1-.71-3.67V90.88h-9v16.21c0,2,.39,6,4.32,8,1.89,1.14,5.07,1.93,10.67,1.93,4,0,10.64-.39,13.39-4.68,1.4-2.14,1.47-5.25,1.47-8.21V90.88h-9Z"/><path class="cls-1" d="M321.5,103.66a7.61,7.61,0,0,0,1.61-4.78,8.15,8.15,0,0,0-3-6.39c-2.1-1.54-4.82-1.57-7-1.61H294.58v25.21h9v-9.18h4.82l5.18,9.18h10L317.29,106A7.28,7.28,0,0,0,321.5,103.66Zm-11.1-2.46h-6.79V96.59h7.5a3.36,3.36,0,0,1,2.32.72,2.12,2.12,0,0,1,.64,1.6C314.07,101.16,311.79,101.2,310.4,101.2Z"/><path class="cls-1" d="M341.69,90.88H327.37v25.21h16a15.4,15.4,0,0,0,7.64-1.61,9.76,9.76,0,0,0,4.71-5,14.43,14.43,0,0,0,1.14-5.75,13.09,13.09,0,0,0-1.75-6.89C351.61,90.74,344.3,90.88,341.69,90.88Zm4.32,18c-1,.93-2.78,1.5-5.86,1.5h-4V96.88h4.21a8.61,8.61,0,0,1,5.39,1.43,6.57,6.57,0,0,1,2.25,5.25A7.37,7.37,0,0,1,346,108.87Z"/><path class="cls-1" d="M398.28,103.23a25.84,25.84,0,0,0-5.64-1.32c-1.39-.21-7.42-1-8.64-1.25-1.57-.32-3.6-1.1-3.6-3.25,0-3,3.5-5,8.85-5,6.71,0,9,3,9.75,4l2.28-1.24c-3-3.57-7-5-11.85-5-7.93,0-11.6,3.54-11.6,7.32a5.07,5.07,0,0,0,3.14,4.75,18.78,18.78,0,0,0,5.14,1.21c1.53.22,3.11.43,4.68.61,5.42.72,8.6,1.39,8.6,4.64,0,3.47-4,5.79-9.89,5.79a20.21,20.21,0,0,1-4.18-.4c-4.6-1-6-3.32-6.82-5.35l-2.64,1a10.26,10.26,0,0,0,5,5.28c2,1,4.36,1.68,8.85,1.68,7,0,10-2.64,11.18-4.5a6.86,6.86,0,0,0,1.11-3.64A5.76,5.76,0,0,0,398.28,103.23Z"/><polygon class="cls-1" points="402.95 92.99 414.27 92.99 414.27 116.09 416.66 116.09 416.66 92.99 427.48 92.99 427.48 90.88 402.95 90.88 402.95 92.99"/><path class="cls-1" d="M442.54,90.1c-9.17,0-15,5.92-15,13.35,0,7.64,5.89,13.31,14.71,13.31,9.25,0,15.07-6.06,15.07-13.35C457.36,97,452.54,90.17,442.54,90.1Zm0,24.52c-6.93,0-12.28-4.14-12.28-11.06,0-5.25,3.46-10.93,11.53-11.29a14.63,14.63,0,0,1,8.42,2.15,10.57,10.57,0,0,1,4.43,8.85C454.61,110.59,449.18,114.62,442.51,114.62Z"/><path class="cls-1" d="M486.22,103.13a6.61,6.61,0,0,0,2.43-5.36,6.72,6.72,0,0,0-3.18-5.92,11.25,11.25,0,0,0-5.53-1H462.52v25.21h2.42V104.84h11.54l10,11.25h3.39l-10.14-11.25C481.62,104.77,484.29,104.63,486.22,103.13Zm-21.28-.43V93H480a6.63,6.63,0,0,1,4.28,1A4.61,4.61,0,0,1,486,97.66a5.09,5.09,0,0,1-1.22,3.4c-1.46,1.57-3.74,1.64-6.32,1.64Z"/><path class="cls-1" d="M503.41,90.88,491,116.09h2.5l3.22-6.54H513l3.25,6.54h2.61L506.13,90.88Zm-5.71,16.67,7.07-14.42L512,107.55Z"/><path class="cls-1" d="M532.07,105.06H545.5a8.86,8.86,0,0,1-3,6.49,12,12,0,0,1-8.18,3c-7.25,0-11.85-4.64-11.85-11.07,0-6.21,4.6-11.1,11.57-11.1a12.68,12.68,0,0,1,8.53,2.93,9.47,9.47,0,0,1,2.14,2.82l2.36-1.36a13.19,13.19,0,0,0-3.43-3.85,16.17,16.17,0,0,0-9.42-2.79c-8.75,0-14.32,5.89-14.32,13.46s5.78,13.21,14.21,13.21a14.4,14.4,0,0,0,9-3,9.2,9.2,0,0,0,2.36-2.89v5.18h2.18V102.91H532.07Z"/><polygon class="cls-1" points="557.22 113.98 557.22 103.91 577.25 103.91 577.25 101.81 557.22 101.81 557.22 92.99 578.89 92.99 578.89 90.88 554.76 90.88 554.76 116.09 579.93 116.09 579.93 113.98 557.22 113.98"/><path class="cls-1" d="M369.87,90.88h-9v25.21h9V104.84h5v-2.21h-5Zm-5.56,14v-2.21h5.09v2.21Z"/><path class="cls-1" d="M87.75,76.88c-45.36,0-82.13,17.41-82.13,38.88s36.77,38.89,82.13,38.89,82.13-17.41,82.13-38.89S133.11,76.88,87.75,76.88Zm0,76.48c-43.12,0-78.07-16.84-78.07-37.6s35-37.59,78.07-37.59S165.83,95,165.83,115.76,130.87,153.36,87.75,153.36Z"/><path class="cls-1" d="M87.75,93.31c-23.65-.46-33.17,10.75-33.17,10.75h4.15c10.52-10.52,29-9.37,29-9.37,20.73,0,29,9.37,29,9.37h4.14C108.72,91.85,87.75,93.31,87.75,93.31Z"/><path class="cls-1" d="M87.75,89.32c-34.86,0-44.38,14.74-44.38,14.74h4C59,90.16,87.75,90.55,87.75,90.55c28.72,0,40.24,13.51,40.24,13.51h4.15C119.39,89,87.75,89.32,87.75,89.32Z"/><path class="cls-1" d="M87.75,85.17c-41.46.62-55.28,18.89-55.28,18.89h4.14c14-17.81,51.14-17.66,51.14-17.66,38.86.61,51.14,17.66,51.14,17.66h3.84C126.91,85,87.75,85.17,87.75,85.17Z"/><path class="cls-1" d="M87.75,82.56c47.15.92,62.05,21.5,62.05,21.5h4c-18.28-22.73-66-22.88-66-22.88-52.82,1.23-66.34,22.88-66.34,22.88h3.84C44.14,82,87.75,82.56,87.75,82.56Z"/><path class="cls-1" d="M87.75,137.85s21.35,1.68,33.63-10.6h-4.29s-6.45,9.52-29.34,9.52c0,0-20.73-.31-28.41-9.52h-4.6S65.1,138.38,87.75,137.85Z"/><path class="cls-1" d="M48.13,127.25h-4.3s9.06,13.67,43.92,14.59c0,0,29.34,2.15,44.85-14.59h-4s-10.75,13.82-40.85,13.21C87.75,140.46,59.65,141.07,48.13,127.25Z"/><path class="cls-1" d="M37,127.25H32.78s12,17.2,55,18.73c0,0,40.39.62,55.75-18.73h-4.15S128,144.76,87.75,144.76C87.75,144.76,53.66,145.22,37,127.25Z"/><path class="cls-1" d="M87.75,148.6S43.6,148.36,26,127.25H21.87s15.05,21.65,65.88,22.57c0,0,47,1.85,66.5-22.57h-4S138,147.67,87.75,148.6Z"/><polygon class="cls-1" points="27.48 125.71 29.09 117.88 30.47 125.71 33.93 125.71 36.92 106.13 33.7 106.13 32.08 114.66 30.47 106.13 27.48 106.13 25.86 114.89 24.71 106.13 20.8 106.13 24.25 125.71 27.48 125.71"/><polygon class="cls-1" points="40.84 125.71 44.06 125.71 44.06 117.54 50.97 117.54 50.97 125.71 54.43 125.71 54.43 106.13 50.97 106.13 50.97 113.27 44.06 113.27 44.06 106.13 40.84 106.13 40.84 125.71"/><rect class="cls-1" x="58.57" y="106.13" width="3.69" height="19.58"/><polygon class="cls-1" points="83.3 106.13 83.3 125.71 96.51 125.71 96.51 122.03 87.06 122.03 87.06 106.13 83.3 106.13"/><polygon class="cls-1" points="106.37 118 107.76 125.71 111.33 125.71 114.44 106.13 110.86 106.13 109.37 114.19 107.99 106.13 104.65 106.13 103.26 114.31 101.77 106.13 98.31 106.13 101.31 125.71 104.99 125.71 106.37 118"/><rect class="cls-1" x="117.7" y="106.13" width="3.69" height="19.58"/><polygon class="cls-1" points="139.35 125.71 139.35 106.13 135.82 106.13 135.82 116.69 135.67 116.84 130.33 106.13 126.8 106.13 126.8 125.71 130.52 125.71 130.52 115.77 130.69 115.6 135.63 125.71 139.35 125.71"/><path class="cls-1" d="M151.1,106.13H143v19.58h9.06a4.45,4.45,0,0,0,4-4.53v-9.75C156.48,106.9,151.1,106.13,151.1,106.13Zm1.31,5.61v8.67s-.16,1.85-1.77,1.85h-4V110h3.91S152.83,110,152.41,111.74Z"/><path class="cls-1" d="M80,111.74a4.93,4.93,0,0,0-4.92-5.61H66.87v19.58h3.84v-7.52h2.91l2.54,7.52h4l-2.61-8A7.06,7.06,0,0,0,80,111.74Zm-5.53,2.61H70.78v-4.68h3.69a2,2,0,0,1,1.92,2.15S76.62,114.35,74.47,114.35Z"/><path class="cls-1" d="M203.25,141c.59,1.39,1.52,3,4.67,3.66a13.72,13.72,0,0,0,2.86.27c4,0,6.77-1.59,6.77-4,0-2.22-2.17-2.69-5.89-3.18-1.07-.12-2.15-.27-3.2-.41a12.84,12.84,0,0,1-3.52-.83,3.49,3.49,0,0,1-2.15-3.25c0-2.6,2.52-5,7.94-5,3.3,0,6.09,1,8.12,3.4l-1.56.86c-.54-.71-2.08-2.77-6.68-2.77-3.66,0-6.06,1.42-6.06,3.45,0,1.47,1.39,2,2.47,2.23.83.17,5,.71,5.91.85a17.55,17.55,0,0,1,3.87.91,3.92,3.92,0,0,1,2.54,3.66,4.73,4.73,0,0,1-.76,2.5c-.83,1.27-2.86,3.08-7.65,3.08a12.24,12.24,0,0,1-6.06-1.15,7,7,0,0,1-3.42-3.62Z"/><path class="cls-1" d="M223.06,128.73h16.52v1.44H224.74v6h13.72v1.44H224.74v6.89h15.55V146H223.06Z"/><path class="cls-1" d="M246.16,128.73v15.81h12.56V146H244.47V128.73Z"/><path class="cls-1" d="M261.26,128.7h15.89v1.45H263v6.13h12.71v1.47H263V146h-1.69Z"/><path class="cls-1" d="M285.56,136.77v1.52h-6.74v-1.52Z"/><path class="cls-1" d="M289.33,141c.58,1.39,1.51,3,4.67,3.66a13.66,13.66,0,0,0,2.86.27c4,0,6.77-1.59,6.77-4,0-2.22-2.18-2.69-5.89-3.18-1.08-.12-2.15-.27-3.21-.41a12.93,12.93,0,0,1-3.52-.83,3.49,3.49,0,0,1-2.15-3.25c0-2.6,2.52-5,7.95-5,3.3,0,6.08,1,8.11,3.4l-1.56.86c-.54-.71-2.08-2.77-6.67-2.77-3.67,0-6.07,1.42-6.07,3.45,0,1.47,1.4,2,2.47,2.23.83.17,5,.71,5.92.85a17.31,17.31,0,0,1,3.86.91,3.92,3.92,0,0,1,2.54,3.66,4.73,4.73,0,0,1-.76,2.5c-.83,1.27-2.86,3.08-7.65,3.08a12.24,12.24,0,0,1-6.06-1.15,7,7,0,0,1-3.42-3.62Z"/><path class="cls-1" d="M306.08,128.73h16.79v1.44h-7.4V146h-1.64V130.17h-7.75Z"/><path class="cls-1" d="M343.34,137.31c0,5-4,9.14-10.32,9.14-6,0-10.07-3.89-10.07-9.12s4-9.14,10.24-9.14C340,128.24,343.34,132.88,343.34,137.31Zm-18.58.1c0,4.74,3.67,7.57,8.41,7.57,4.57,0,8.29-2.76,8.29-7.77a7.25,7.25,0,0,0-3-6.06,9.94,9.94,0,0,0-5.76-1.47C327.13,129.93,324.76,133.81,324.76,137.41Z"/><path class="cls-1" d="M358.81,128.73a7.74,7.74,0,0,1,3.79.66,4.63,4.63,0,0,1,2.18,4.06,4.51,4.51,0,0,1-1.66,3.66,7.72,7.72,0,0,1-4.48,1.18l6.94,7.7h-2.32l-6.82-7.7h-7.89V146h-1.67V128.73Zm-10.26,8.09h9.26c1.76,0,3.33,0,4.33-1.12a3.53,3.53,0,0,0,.83-2.33,3.17,3.17,0,0,0-1.17-2.54,4.59,4.59,0,0,0-2.94-.68H348.55Z"/><path class="cls-1" d="M376.76,128.73l8.7,17.26h-1.79l-2.22-4.48H370.33l-2.2,4.48h-1.71l8.48-17.26Zm-.93,1.54L371,140.14h9.78Z"/><path class="cls-1" d="M403.73,142.44a6.1,6.1,0,0,1-1.62,2,9.84,9.84,0,0,1-6.18,2.06c-5.77,0-9.73-3.79-9.73-9s3.81-9.21,9.8-9.21a11.09,11.09,0,0,1,6.45,1.9,9,9,0,0,1,2.35,2.64l-1.61.93a6.66,6.66,0,0,0-1.47-1.93,8.68,8.68,0,0,0-5.84-2c-4.77,0-7.92,3.35-7.92,7.61s3.15,7.58,8.11,7.58a8.17,8.17,0,0,0,5.6-2.06,6,6,0,0,0,2.06-4.45h-9.2V137h10.69v9h-1.49Z"/><path class="cls-1" d="M410.08,128.73h16.53v1.44H411.77v6h13.71v1.44H411.77v6.89h15.55V146H410.08Z"/><path class="cls-1" d="M440.17,141c.59,1.39,1.52,3,4.67,3.66a13.72,13.72,0,0,0,2.86.27c4,0,6.78-1.59,6.78-4,0-2.22-2.18-2.69-5.9-3.18-1.07-.12-2.15-.27-3.2-.41a12.93,12.93,0,0,1-3.52-.83,3.49,3.49,0,0,1-2.15-3.25c0-2.6,2.52-5,8-5,3.3,0,6.08,1,8.11,3.4l-1.56.86c-.54-.71-2.08-2.77-6.68-2.77-3.66,0-6.06,1.42-6.06,3.45,0,1.47,1.39,2,2.47,2.23.83.17,5,.71,5.92.85a17.44,17.44,0,0,1,3.86.91,3.92,3.92,0,0,1,2.54,3.66,4.73,4.73,0,0,1-.76,2.5c-.83,1.27-2.86,3.08-7.65,3.08a12.24,12.24,0,0,1-6.06-1.15,7,7,0,0,1-3.42-3.62Z"/><path class="cls-1" d="M479.36,137.31c0,5-4,9.14-10.32,9.14-6,0-10.07-3.89-10.07-9.12s4-9.14,10.25-9.14C476.06,128.24,479.36,132.88,479.36,137.31Zm-18.58.1c0,4.74,3.67,7.57,8.41,7.57,4.57,0,8.29-2.76,8.29-7.77a7.27,7.27,0,0,0-3-6.06,10,10,0,0,0-5.77-1.47C463.15,129.93,460.78,133.81,460.78,137.41Z"/><path class="cls-1" d="M484.62,128.73v15.81h12.56V146H482.93V128.73Z"/><path class="cls-1" d="M499.14,128.7h1.59V139c-.1,4.39,2.64,5.86,7.17,5.86,5.27,0,7.16-1.88,7.16-6.16v-10h1.56V139c0,5.23-2.88,7.48-8.72,7.48s-8.76-2.3-8.76-7.29Z"/><path class="cls-1" d="M518.58,128.73h16.79v1.44H528V146h-1.63V130.17h-7.75Z"/><path class="cls-1" d="M537.43,128.73h1.63V146h-1.63Z"/><path class="cls-1" d="M563,137.31c0,5-4,9.14-10.32,9.14-6,0-10.07-3.89-10.07-9.12s4-9.14,10.24-9.14C559.65,128.24,563,132.88,563,137.31Zm-18.58.1c0,4.74,3.66,7.57,8.41,7.57,4.57,0,8.28-2.76,8.28-7.77a7.24,7.24,0,0,0-3-6.06,10,10,0,0,0-5.77-1.47C546.74,129.93,544.37,133.81,544.37,137.41Z"/><path class="cls-1" d="M584.36,128.73V146h-1.54L568,130.93V146h-1.54V128.73H568l14.79,15.13V128.73Z"/><path class="cls-1" d="M589.47,141c.59,1.39,1.52,3,4.67,3.66a13.72,13.72,0,0,0,2.86.27c4,0,6.77-1.59,6.77-4,0-2.22-2.18-2.69-5.89-3.18-1.08-.12-2.15-.27-3.2-.41a12.84,12.84,0,0,1-3.52-.83,3.47,3.47,0,0,1-2.15-3.25c0-2.6,2.51-5,7.94-5,3.3,0,6.09,1,8.12,3.4l-1.57.86c-.54-.71-2.08-2.77-6.67-2.77-3.67,0-6.06,1.42-6.06,3.45,0,1.47,1.39,2,2.46,2.23.84.17,5,.71,5.92.85a17.31,17.31,0,0,1,3.86.91,3.92,3.92,0,0,1,2.54,3.66,4.72,4.72,0,0,1-.75,2.5c-.83,1.27-2.86,3.08-7.65,3.08a12.29,12.29,0,0,1-6.07-1.15,7,7,0,0,1-3.42-3.62Z"/></svg>